<svg xmlns="http://www.w3.org/2000/svg" width="48" height="48"><g transform="translate(0 -1004.362)"><circle cx="24" cy="1028.362" r="24" fill="#ffa40b" fill-rule="evenodd"/><path fill="#ff7712" style="line-height:normal;text-indent:0;text-align:start;text-decoration-line:none;text-decoration-style:solid;text-decoration-color:#000;text-transform:none;block-progression:tb;isolation:auto;mix-blend-mode:normal" d="M24.451 47.984a24 24 0 0 0 1.246-.045 24 24 0 0 0 2.383-.289 24 24 0 0 0 2.34-.525 24 24 0 0 0 2.277-.756 24 24 0 0 0 2.19-.98 24 24 0 0 0 2.08-1.194 24 24 0 0 0 1.951-1.394 24 24 0 0 0 1.803-1.584 24 24 0 0 0 1.634-1.756 24 24 0 0 0 1.454-1.91 24 24 0 0 0 1.254-2.045 24 24 0 0 0 1.042-2.16 24 24 0 0 0 .823-2.254 24 24 0 0 0 .04-.156L26.767 10.734A2.491 2.491 0 0 0 25 10a2.506 2.506 0 0 0-2.5 2.5c0 .163.019.32.049.475.01.049.025.094.037.142.027.104.058.206.098.305.019.048.042.092.064.139.044.092.092.183.147.27.03.048.065.095.1.142.052.071.107.14.167.205.025.027.044.06.07.086L24.5 15.53V17h-7a.5.5 0 0 0-.5.5v2.55h-.002A2.508 2.508 0 0 0 15 22.5c0 .163.019.32.049.475.01.049.025.094.037.142.027.104.058.206.098.305.019.048.042.092.064.139.044.092.092.183.147.27.03.048.065.095.1.142.052.071.107.14.167.205.025.027.044.06.07.086L17 25.53V27h-4.5a.5.5 0 0 0-.5.5v2.55a2.508 2.508 0 0 0-2 2.45c0 .688.281 1.313.734 1.766l13.717 13.718z" color="#000" font-family="sans-serif" font-weight="400" transform="translate(0 1004.362)"/><path fill="#fff" style="line-height:normal;text-indent:0;text-align:start;text-decoration-line:none;text-decoration-style:solid;text-decoration-color:#000;text-transform:none;block-progression:tb;isolation:auto;mix-blend-mode:normal" d="M17 4a2.506 2.506 0 0 0-2.5 2.5c0 1.204.863 2.213 2 2.447V11h-7a.5.5 0 0 0-.5.5v2.55h-.002A2.508 2.508 0 0 0 7 16.5c0 1.204.863 2.213 2 2.447V21H4.5a.5.5 0 0 0-.5.5v2.55a2.508 2.508 0 0 0-2 2.45C2 27.876 3.124 29 4.5 29S7 27.876 7 26.5a2.508 2.508 0 0 0-2-2.45V22h9v2.05a2.508 2.508 0 0 0-2 2.45c0 1.376 1.124 2.5 2.5 2.5s2.5-1.124 2.5-2.5a2.508 2.508 0 0 0-2-2.45V21.5a.5.5 0 0 0-.5-.5H10v-2.053h.002A2.506 2.506 0 0 0 12 16.5a2.51 2.51 0 0 0-2-2.45V12h14v2.05h-.002A2.508 2.508 0 0 0 22 16.5c0 1.204.86 2.213 1.998 2.447V21.5a.5.5 0 0 0 .5.5H27v2.05h-.002A2.508 2.508 0 0 0 25 26.5c0 1.376 1.124 2.5 2.5 2.5s2.5-1.124 2.5-2.5a2.51 2.51 0 0 0-2-2.45V21.5a.5.5 0 0 0-.5-.5h-2.502v-2.053A2.506 2.506 0 0 0 27 16.5a2.51 2.51 0 0 0-2-2.45V11.5a.5.5 0 0 0-.5-.5h-7V8.947h.002A2.506 2.506 0 0 0 19.5 6.5C19.5 5.124 18.376 4 17 4Zm0 1c.84 0 1.5.66 1.5 1.5 0 .813-.622 1.453-1.424 1.492a.5.5 0 0 0-.084-.006.5.5 0 0 0-.072.006c-.8-.041-1.42-.68-1.42-1.492 0-.84.66-1.5 1.5-1.5ZM9.457 15.004h.002a.5.5 0 0 0 .078 0c.821.02 1.463.67 1.463 1.496 0 .813-.622 1.453-1.424 1.492a.5.5 0 0 0-.084-.006.5.5 0 0 0-.072.006C8.62 17.951 8 17.312 8 16.5c0-.825.639-1.473 1.457-1.496Zm15 0h.002a.5.5 0 0 0 .078 0c.821.02 1.463.67 1.463 1.496 0 .824-.637 1.471-1.453 1.496a.5.5 0 0 0-.057-.002.5.5 0 0 0-.035.002A1.483 1.483 0 0 1 23 16.5c0-.825.639-1.473 1.457-1.496zm-20 10h.002a.5.5 0 0 0 .078 0c.821.02 1.463.67 1.463 1.496 0 .84-.66 1.5-1.5 1.5S3 27.34 3 26.5c0-.825.639-1.473 1.457-1.496Zm10 0h.002a.5.5 0 0 0 .078 0c.821.02 1.463.67 1.463 1.496 0 .84-.66 1.5-1.5 1.5s-1.5-.66-1.5-1.5c0-.825.639-1.473 1.457-1.496zm13 0h.002a.5.5 0 0 0 .078 0c.821.02 1.463.67 1.463 1.496 0 .84-.66 1.5-1.5 1.5s-1.5-.66-1.5-1.5c0-.825.639-1.473 1.457-1.496z" color="#000" font-family="sans-serif" font-weight="400" overflow="visible" transform="translate(8 1010.362)"/></g></svg>